<svg viewBox="0 0 700 150" xmlns="http://www.w3.org/2000/svg">
  <defs>
    <!-- Enhanced cyan/blue gradient for elements -->
    <linearGradient id="glowGradient" x1="0%" y1="0%" x2="100%" y2="100%">
      <stop offset="0%" stop-color="#00E5FF" />
      <stop offset="100%" stop-color="#257499" />
    </linearGradient>
    
    <!-- Glow filter for neon effect -->
    <filter id="glow" x="-20%" y="-20%" width="140%" height="140%">
      <feGaussianBlur stdDeviation="4" result="blur" />
      <feComposite in="SourceGraphic" in2="blur" operator="over" />
    </filter>

        <!-- Animated glow filter for the "24" -->
    <filter id="animatedGlow" x="-30%" y="-30%" width="160%" height="160%">
      <feGaussianBlur stdDeviation="6" result="blur">
        <animate attributeName="stdDeviation" 
                 values="4;8;4" 
                 dur="2s" 
                 repeatCount="indefinite" />
      </feGaussianBlur>
      <feComposite in="SourceGraphic" in2="blur" operator="over" />
    </filter>
    
    <!-- Subtle inner shadow for text -->
    <filter id="textGlow">
      <feGaussianBlur stdDeviation="2" result="blur" />
      <feComposite in="SourceGraphic" in2="blur" operator="over" />
    </filter>

        <!-- Animated white shadow for ByteHomes text -->
    <filter id="animatedWhiteShadow" x="-10%" y="-10%" width="120%" height="120%">
      <feDropShadow dx="0" dy="0" stdDeviation="3" flood-color="white" flood-opacity="0.7">
        <animate attributeName="stdDeviation" 
                 values="2;5;2" 
                 dur="3s" 
                 repeatCount="indefinite" />
        <animate attributeName="flood-opacity" 
                 values="0.5;0.8;0.5" 
                 dur="3s" 
                 repeatCount="indefinite" />
      </feDropShadow>
      <feComposite in="SourceGraphic" in2="blur" operator="over" />
    </filter>

    
    <!-- Subtle connection lines -->
    <linearGradient id="lineGradient" x1="0%" y1="0%" x2="100%" y2="0%">
      <stop offset="0%" stop-color="#00E5FF" stop-opacity="0.1" />
      <stop offset="50%" stop-color="#00E5FF" stop-opacity="0.3" />
      <stop offset="100%" stop-color="#00E5FF" stop-opacity="0.1" />
    </linearGradient>
    
  <!-- Animation definitions -->
    <animate id="glowPulse" attributeName="stdDeviation" from="4" to="6" dur="1.5s" repeatCount="indefinite" begin="0s" />
  </defs>
  
  <!-- Main elements are centered on y=75 -->
  
  <!-- Left brackets with animations -->
  <path d="M60 40 L30 75 L60 110" stroke="url(#glowGradient)" stroke-width="10" fill="none" stroke-linecap="round" stroke-linejoin="round" filter="url(#glow)">
    <animate attributeName="stroke-width" values="10;12;10" dur="2s" repeatCount="indefinite" />
    <animate attributeName="opacity" values="0.8;1;0.8" dur="3s" repeatCount="indefinite" />
  </path>
  
  <path d="M75 40 L45 75 L75 110" stroke="url(#glowGradient)" stroke-width="10" fill="none" stroke-linecap="round" stroke-linejoin="round" filter="url(#glow)">
    <animate attributeName="stroke-width" values="10;12;10" dur="2s" repeatCount="indefinite" begin="0.5s" />
    <animate attributeName="opacity" values="0.8;1;0.8" dur="3s" repeatCount="indefinite" begin="0.7s" />
  </path>

  <!-- Right brackets with animations -->
  <path d="M120 40 L150 75 L120 110" stroke="url(#glowGradient)" stroke-width="10" fill="none" stroke-linecap="round" stroke-linejoin="round" filter="url(#glow)">
    <animate attributeName="stroke-width" values="10;12;10" dur="2s" repeatCount="indefinite" begin="0.3s" />
    <animate attributeName="opacity" values="0.8;1;0.8" dur="3s" repeatCount="indefinite" begin="0.2s" />
  </path>
  
  <path d="M105 40 L135 75 L105 110" stroke="url(#glowGradient)" stroke-width="10" fill="none" stroke-linecap="round" stroke-linejoin="round" filter="url(#glow)">
    <animate attributeName="stroke-width" values="10;12;10" dur="2s" repeatCount="indefinite" begin="0.8s" />
    <animate attributeName="opacity" values="0.8;1;0.8" dur="3s" repeatCount="indefinite" begin="0.5s" />
  </path>
  

  
  <!-- Animated particles around the brackets -->
  <circle cx="30" cy="75" r="2" fill="#00E5FF">
    <animate attributeName="cx" values="30;45;30" dur="3s" repeatCount="indefinite" />
    <animate attributeName="cy" values="75;65;75" dur="3s" repeatCount="indefinite" />
    <animate attributeName="opacity" values="0.3;0.8;0.3" dur="3s" repeatCount="indefinite" />
  </circle>
  
  <circle cx="150" cy="75" r="2" fill="#00E5FF">
    <animate attributeName="cx" values="150;135;150" dur="3.5s" repeatCount="indefinite" />
    <animate attributeName="cy" values="75;85;75" dur="3.5s" repeatCount="indefinite" />
    <animate attributeName="opacity" values="0.3;0.8;0.3" dur="3.5s" repeatCount="indefinite" />
  </circle>
  
  <circle cx="90" cy="40" r="2" fill="#00E5FF">
    <animate attributeName="cx" values="90;100;90" dur="4s" repeatCount="indefinite" />
    <animate attributeName="cy" values="40;50;40" dur="4s" repeatCount="indefinite" />
    <animate attributeName="opacity" values="0.3;0.8;0.3" dur="4s" repeatCount="indefinite" />
  </circle>
  
  <circle cx="90" cy="110" r="2" fill="#00E5FF">
    <animate attributeName="cx" values="90;80;90" dur="3.2s" repeatCount="indefinite" />
    <animate attributeName="cy" values="110;100;110" dur="3.2s" repeatCount="indefinite" />
    <animate attributeName="opacity" values="0.3;0.8;0.3" dur="3.2s" repeatCount="indefinite" />
  </circle>
  
  <!-- ByteHomes text - centered on baseline with animated white shadow -->
  <text x="170" y="98" font-family="Arial, sans-serif" font-size="60" font-weight="700" fill="white" filter="url(#animatedWhiteShadow)">ByteHomes</text>
  
  <!-- "24" text with animated glow -->
  <text x="500" y="110" font-family="Arial, sans-serif" font-size="35" font-weight="700" fill="url(#glowGradient)" filter="url(#animatedGlow)">
    <animate attributeName="opacity" values="0.8;1;0.8" dur="2s" repeatCount="indefinite" />
    24
  </text>
  
  <!-- NEW House icon from provided SVG -->
  <g transform="translate(538, 35) scale(1.4)" filter="url(#glow)">
    <path d="M24,2.99805c-0.95784,0 -1.91565,0.33287 -2.68359,0.99609l-17.5293,15.13867c-0.0013,0.00065 -0.00261,0.0013 -0.00391,0.00195c-0.73112,0.63533 -0.91428,1.6465 -0.62109,2.43359c0.29319,0.7871 1.09765,1.43164 2.06836,1.43164h2.76953h28c0.36064,0.0051 0.69608,-0.18438 0.87789,-0.49587c0.18181,-0.3115 0.18181,-0.69676 0,-1.00825c-0.18181,-0.3115 -0.51725,-0.50097 -0.87789,-0.49587h-28h-2.76953c-0.14929,0 -0.16155,-0.04546 -0.19336,-0.13086c-0.03181,-0.0854 -0.05028,-0.12999 0.05859,-0.22461l17.52734,-15.13867c0.79611,-0.68755 1.95779,-0.68755 2.75391,0l6.96875,6.02148c0.29621,0.25617 0.71468,0.31588 1.07071,0.15278c0.35603,-0.16309 0.58412,-0.51899 0.58359,-0.9106v-4.76953h3v9.08984c-0.00044,0.29086 0.12575,0.5675 0.3457,0.75781l5.55859,4.79688c0.10888,0.09462 0.0904,0.13921 0.05859,0.22461c-0.03181,0.0854 -0.04407,0.13086 -0.19336,0.13086h-2.76953c-0.55226,0.00006 -0.99994,0.44774 -1,1v20c0,0.56503 -0.43497,1 -1,1h-7c-0.56503,0 -1,-0.43497 -1,-1v-10c0,-1.64545 -1.35455,-3 -3,-3h-6c-1.64545,0 -3,1.35455 -3,3v10c0,0.56503 -0.43497,1 -1,1h-7c-0.56503,0 -1,-0.43497 -1,-1v-16c0.0051,-0.36064 -0.18438,-0.69608 -0.49587,-0.87789c-0.3115,-0.18181 -0.69676,-0.18181 -1.00825,0c-0.3115,0.18181 -0.50097,0.51725 -0.49587,0.87789v16c0,1.64497 1.35503,3 3,3h7c1.64497,0 3,-1.35503 3,-3v-10c0,-0.55455 0.44545,-1 1,-1h6c0.55455,0 1,0.44545 1,1v10c0,1.64497 1.35503,3 3,3h7c1.64497,0 3,-1.35503 3,-3v-19h1.76953c0.97071,0 1.77517,-0.64454 2.06836,-1.43164c0.29319,-0.7871 0.11003,-1.79821 -0.62109,-2.43359c-0.0013,-0.00065 -0.0026,-0.00131 -0.00391,-0.00195l-5.21289,-4.5v-8.63281c0,-1.09545 -0.90454,-2 -2,-2h-3c-1.09546,0 -2,0.90455 -2,2v2.58594l-5.31641,-4.5918c-0.76794,-0.66322 -1.72576,-0.99609 -2.68359,-0.99609z" fill="url(#glowGradient)">
    <animate attributeName="opacity" values="0.8;1;0.8" dur="2s" repeatCount="indefinite" />
    </path>
  </g>
  
  <!-- Decorative dots - KEEPING ORIGINAL POSITIONS as in the reference image -->
  <circle cx="525" cy="40" r="6" fill="url(#glowGradient)" filter="url(#glow)">
  </circle>
  
  <circle cx="610" cy="100" r="8" fill="url(#glowGradient)" filter="url(#glow)">
  </circle>
  
  <!-- Small decorative dots - keeping original scattered positions -->
  <circle cx="350" cy="30" r="1.5" fill="#00E5FF" opacity="0.7">
  </circle>
  
  <circle cx="450" cy="115" r="1.5" fill="#00E5FF" opacity="0.7">
  </circle>
  
  <circle cx="250" cy="120" r="1.5" fill="#00E5FF" opacity="0.7">
  </circle>
  
  <!-- Connecting lines - aligned on center axis -->
  <path d="M150 75 H180" stroke="url(#lineGradient)" stroke-width="1">
  </path>
  
  <path d="M455 75 H510" stroke="url(#lineGradient)" stroke-width="1">
  </path>
</svg>