<svg viewBox="0 0 1000 800" xmlns="http://www.w3.org/2000/svg">
  <!-- Definitions for gradients and effects -->
  <defs>
    <!-- Code window gradient -->
    <linearGradient id="window-gradient" x1="0%" y1="0%" x2="0%" y2="100%">
      <stop offset="0%" stop-color="#2d2d3a"/>
      <stop offset="100%" stop-color="#1a1a24"/>
    </linearGradient>
    
    <!-- Teal glow for buttons and highlights -->
    <radialGradient id="teal-glow" cx="50%" cy="50%" r="50%" fx="50%" fy="50%">
      <stop offset="0%" stop-color="#5de6e6" stop-opacity="1"/>
      <stop offset="100%" stop-color="#41b3b3" stop-opacity="0.6"/>
    </radialGradient>
    
    <!-- Data stream gradient -->
    <linearGradient id="data-gradient" x1="0%" y1="0%" x2="100%" y2="0%">
      <stop offset="0%" stop-color="#5de6e6" stop-opacity="0"/>
      <stop offset="50%" stop-color="#5de6e6" stop-opacity="0.8"/>
      <stop offset="100%" stop-color="#5de6e6" stop-opacity="0"/>
    </linearGradient>
    
    <!-- Filter for glow effect -->
    <filter id="glow" x="-20%" y="-20%" width="140%" height="140%">
      <feGaussianBlur stdDeviation="5" result="blur"/>
      <feComposite in="SourceGraphic" in2="blur" operator="over"/>
    </filter>
  </defs>
  
  <!-- Floating code editors -->
  <!-- Main editor -->
  <g transform="translate(500, 400) rotate(-10)">
    <rect x="-200" y="-150" width="400" height="300" rx="10" fill="url(#window-gradient)" stroke="#333340" stroke-width="2"/>
    
    <!-- Window controls -->
    <circle cx="-180" cy="-130" r="7" fill="#ff6b6b"/>
    <circle cx="-160" cy="-130" r="7" fill="#ffb86c"/>
    <circle cx="-140" cy="-130" r="7" fill="#5de6e6"/>
    
    <!-- Code lines -->
    <rect x="-180" y="-100" width="160" height="5" rx="2" fill="#41b3b3" opacity="0.9"/>
    <rect x="-180" y="-85" width="300" height="5" rx="2" fill="#6d6d88" opacity="0.7"/>
    <rect x="-180" y="-70" width="280" height="5" rx="2" fill="#6d6d88" opacity="0.7"/>
    <rect x="-180" y="-55" width="200" height="5" rx="2" fill="#41b3b3" opacity="0.9"/>
    <rect x="-180" y="-40" width="320" height="5" rx="2" fill="#6d6d88" opacity="0.7"/>
    <rect x="-180" y="-25" width="250" height="5" rx="2" fill="#6d6d88" opacity="0.7"/>
    <rect x="-180" y="-10" width="180" height="5" rx="2" fill="#41b3b3" opacity="0.9"/>
    <rect x="-180" y="5" width="300" height="5" rx="2" fill="#6d6d88" opacity="0.7"/>
    <rect x="-180" y="20" width="260" height="5" rx="2" fill="#6d6d88" opacity="0.7"/>
    <rect x="-180" y="35" width="230" height="5" rx="2" fill="#41b3b3" opacity="0.9"/>
    <rect x="-180" y="50" width="340" height="5" rx="2" fill="#6d6d88" opacity="0.7"/>
    <rect x="-180" y="65" width="140" height="5" rx="2" fill="#6d6d88" opacity="0.7"/>
    <rect x="-180" y="80" width="270" height="5" rx="2" fill="#41b3b3" opacity="0.9"/>
    <rect x="-180" y="95" width="250" height="5" rx="2" fill="#6d6d88" opacity="0.7"/>
    <rect x="-180" y="110" width="180" height="5" rx="2" fill="#6d6d88" opacity="0.7"/>
    
    <!-- Cursor -->
    <rect x="72" y="50" width="2" height="18" fill="#5de6e6">
      <animate attributeName="opacity" values="1;0;1" dur="1.5s" repeatCount="indefinite"/>
    </rect>
  </g>
  
  <!-- Smaller editor in background -->
  <g transform="translate(250, 280) rotate(5)">
    <rect x="-120" y="-90" width="240" height="180" rx="8" fill="url(#window-gradient)" stroke="#333340" stroke-width="1" opacity="0.8"/>
    
    <!-- Window controls -->
    <circle cx="-105" cy="-75" r="5" fill="#ff6b6b" opacity="0.8"/>
    <circle cx="-90" cy="-75" r="5" fill="#ffb86c" opacity="0.8"/>
    <circle cx="-75" cy="-75" r="5" fill="#5de6e6" opacity="0.8"/>
    
    <!-- Code lines (simplified) -->
    <rect x="-100" y="-55" width="120" height="3" rx="1.5" fill="#41b3b3" opacity="0.8"/>
    <rect x="-100" y="-45" width="180" height="3" rx="1.5" fill="#6d6d88" opacity="0.6"/>
    <rect x="-100" y="-35" width="150" height="3" rx="1.5" fill="#6d6d88" opacity="0.6"/>
    <rect x="-100" y="-25" width="100" height="3" rx="1.5" fill="#41b3b3" opacity="0.8"/>
    <rect x="-100" y="-15" width="190" height="3" rx="1.5" fill="#6d6d88" opacity="0.6"/>
    <rect x="-100" y="-5" width="130" height="3" rx="1.5" fill="#6d6d88" opacity="0.6"/>
    <rect x="-100" y="5" width="110" height="3" rx="1.5" fill="#41b3b3" opacity="0.8"/>
    <rect x="-100" y="15" width="170" height="3" rx="1.5" fill="#6d6d88" opacity="0.6"/>
    <rect x="-100" y="25" width="140" height="3" rx="1.5" fill="#6d6d88" opacity="0.6"/>
    <rect x="-100" y="35" width="120" height="3" rx="1.5" fill="#41b3b3" opacity="0.8"/>
    <rect x="-100" y="45" width="180" height="3" rx="1.5" fill="#6d6d88" opacity="0.6"/>
    <rect x="-100" y="55" width="90" height="3" rx="1.5" fill="#6d6d88" opacity="0.6"/>
  </g>
  
  <!-- Third smaller editor -->
  <g transform="translate(680, 300) rotate(-8)">
    <rect x="-100" y="-75" width="200" height="150" rx="8" fill="url(#window-gradient)" stroke="#333340" stroke-width="1" opacity="0.7"/>
    
    <!-- Window controls -->
    <circle cx="-85" cy="-60" r="4" fill="#ff6b6b" opacity="0.7"/>
    <circle cx="-73" cy="-60" r="4" fill="#ffb86c" opacity="0.7"/>
    <circle cx="-61" cy="-60" r="4" fill="#5de6e6" opacity="0.7"/>
    
    <!-- Code lines (simplified) -->
    <rect x="-85" y="-45" width="100" height="3" rx="1.5" fill="#41b3b3" opacity="0.7"/>
    <rect x="-85" y="-35" width="150" height="3" rx="1.5" fill="#6d6d88" opacity="0.5"/>
    <rect x="-85" y="-25" width="120" height="3" rx="1.5" fill="#6d6d88" opacity="0.5"/>
    <rect x="-85" y="-15" width="90" height="3" rx="1.5" fill="#41b3b3" opacity="0.7"/>
    <rect x="-85" y="-5" width="160" height="3" rx="1.5" fill="#6d6d88" opacity="0.5"/>
    <rect x="-85" y="5" width="110" height="3" rx="1.5" fill="#6d6d88" opacity="0.5"/>
    <rect x="-85" y="15" width="70" height="3" rx="1.5" fill="#41b3b3" opacity="0.7"/>
    <rect x="-85" y="25" width="140" height="3" rx="1.5" fill="#6d6d88" opacity="0.5"/>
    <rect x="-85" y="35" width="130" height="3" rx="1.5" fill="#6d6d88" opacity="0.5"/>
  </g>
  
  <!-- Abstract code symbols and icons floating around -->
  <!-- Brackets -->
  <path d="M 300,180 L 270,220 L 300,260" stroke="#5de6e6" stroke-width="8" fill="none" stroke-linecap="round" stroke-linejoin="round" filter="url(#glow)" opacity="0.8"/>
  <path d="M 710,220 L 740,260 L 710,300" stroke="#5de6e6" stroke-width="8" fill="none" stroke-linecap="round" stroke-linejoin="round" filter="url(#glow)" opacity="0.8"/>
  
  <!-- HTML tags -->
  <path d="M 230,450 L 260,430 L 290,450 L 260,470 Z" stroke="#5de6e6" stroke-width="4" fill="none" opacity="0.7"/>
  <path d="M 730,400 L 760,380 L 790,400 L 760,420 Z" stroke="#5de6e6" stroke-width="4" fill="none" opacity="0.7"/>
  
  <!-- Function symbol -->
  <g transform="translate(620, 520) rotate(-15)">
    <path d="M -30,-20 C -20,-35, 20,-35, 30,-20 C 40,-5, 0,10, -10,25 C -20,40, 20,40, 30,25" stroke="#5de6e6" stroke-width="4" fill="none" opacity="0.8"/>
    <circle cx="-10" cy="25" r="5" fill="#5de6e6" opacity="0.8"/>
    <circle cx="30" cy="-20" r="5" fill="#5de6e6" opacity="0.8"/>
  </g>
  
  <!-- Binary streams -->
  <g opacity="0.5">
    <text x="200" y="600" font-family="monospace" font-size="14" fill="#5de6e6">10110011</text>
    <text x="250" y="620" font-family="monospace" font-size="14" fill="#5de6e6">01001010</text>
    <text x="180" y="640" font-family="monospace" font-size="14" fill="#5de6e6">11100101</text>
    
    <text x="650" y="170" font-family="monospace" font-size="14" fill="#5de6e6">10011101</text>
    <text x="680" y="190" font-family="monospace" font-size="14" fill="#5de6e6">01110010</text>
    <text x="630" y="210" font-family="monospace" font-size="14" fill="#5de6e6">11001001</text>
  </g>
  
  <!-- Data streams connecting the elements -->
  <path d="M 300,280 C 350,330, 400,350, 450,350 C 500,350, 550,330, 600,280" stroke="url(#data-gradient)" stroke-width="3" fill="none" opacity="0.6">
    <animate attributeName="stroke-dashoffset" from="1000" to="0" dur="10s" repeatCount="indefinite"/>
    <animate attributeName="stroke-dasharray" values="5,15; 10,10; 15,5; 10,10; 5,15" dur="10s" repeatCount="indefinite"/>
  </path>
  
  <path d="M 350,500 C 400,480, 450,470, 500,470 C 550,470, 600,480, 650,500" stroke="url(#data-gradient)" stroke-width="3" fill="none" opacity="0.6">
    <animate attributeName="stroke-dashoffset" from="0" to="1000" dur="8s" repeatCount="indefinite"/>
    <animate attributeName="stroke-dasharray" values="10,10; 15,5; 10,10; 5,15; 10,10" dur="8s" repeatCount="indefinite"/>
  </path>
  
  <path d="M 250,350 C 300,400, 350,450, 400,500 C 450,550, 500,580, 550,600" stroke="url(#data-gradient)" stroke-width="3" fill="none" opacity="0.6">
    <animate attributeName="stroke-dashoffset" from="500" to="-500" dur="12s" repeatCount="indefinite"/>
    <animate attributeName="stroke-dasharray" values="5,10; 8,7; 10,5; 8,7; 5,10" dur="12s" repeatCount="indefinite"/>
  </path>
  
  <path d="M 750,350 C 700,400, 650,450, 600,500 C 550,550, 500,580, 450,600" stroke="url(#data-gradient)" stroke-width="3" fill="none" opacity="0.6">
    <animate attributeName="stroke-dashoffset" from="-500" to="500" dur="12s" repeatCount="indefinite"/>
    <animate attributeName="stroke-dasharray" values="8,7; 10,5; 8,7; 5,10; 8,7" dur="12s" repeatCount="indefinite"/>
  </path>
  
  <!-- Glowing orbs representing data/code points -->
  <circle cx="300" cy="280" r="10" fill="url(#teal-glow)" filter="url(#glow)"/>
  <circle cx="600" cy="280" r="10" fill="url(#teal-glow)" filter="url(#glow)"/>
  <circle cx="350" cy="500" r="10" fill="url(#teal-glow)" filter="url(#glow)"/>
  <circle cx="650" cy="500" r="10" fill="url(#teal-glow)" filter="url(#glow)"/>
  <circle cx="250" cy="350" r="10" fill="url(#teal-glow)" filter="url(#glow)"/>
  <circle cx="750" cy="350" r="10" fill="url(#teal-glow)" filter="url(#glow)"/>
  <circle cx="550" cy="600" r="10" fill="url(#teal-glow)" filter="url(#glow)"/>
  <circle cx="450" cy="600" r="10" fill="url(#teal-glow)" filter="url(#glow)"/>
  
  <!-- Small decorative elements -->
  <circle cx="200" cy="200" r="5" fill="#5de6e6" opacity="0.5"/>
  <circle cx="220" cy="220" r="3" fill="#5de6e6" opacity="0.5"/>
  <circle cx="180" cy="220" r="4" fill="#5de6e6" opacity="0.5"/>
  
  <circle cx="800" cy="200" r="5" fill="#5de6e6" opacity="0.5"/>
  <circle cx="780" cy="220" r="3" fill="#5de6e6" opacity="0.5"/>
  <circle cx="820" cy="220" r="4" fill="#5de6e6" opacity="0.5"/>
  
  <circle cx="200" cy="600" r="5" fill="#5de6e6" opacity="0.5"/>
  <circle cx="220" cy="580" r="3" fill="#5de6e6" opacity="0.5"/>
  <circle cx="180" cy="580" r="4" fill="#5de6e6" opacity="0.5"/>
  
  <circle cx="800" cy="600" r="5" fill="#5de6e6" opacity="0.5"/>
  <circle cx="780" cy="580" r="3" fill="#5de6e6" opacity="0.5"/>
  <circle cx="820" cy="580" r="4" fill="#5de6e6" opacity="0.5"/>
</svg>
